<svg width="200" height="43" viewBox="0 0 200 43" fill="none" xmlns="http://www.w3.org/2000/svg">
<path d="M126.08 0.0283203C128.581 0.0283203 130.825 0.584733 132.81 1.69629C134.794 2.80783 136.343 4.37587 137.454 6.40039C138.605 8.38523 139.181 10.6479 139.181 13.1885V30.2793C139.181 31.4699 139.519 32.4223 140.193 33.1367C140.868 33.8513 141.722 34.209 142.754 34.209C143.786 34.209 144.64 33.8513 145.314 33.1367C145.989 32.4223 146.327 31.4699 146.327 30.2793V0.624023H155.854V29.8623C155.854 32.3235 155.278 34.5464 154.127 36.5312C153.015 38.5161 151.467 40.0841 149.482 41.2354C147.498 42.3469 145.255 42.9033 142.754 42.9033C140.253 42.9033 138.01 42.3468 136.025 41.2354C134.04 40.0841 132.472 38.5162 131.32 36.5312C130.209 34.5465 129.653 32.3234 129.653 29.8623V12.5928C129.653 11.402 129.315 10.4498 128.641 9.73535C127.966 9.02078 127.112 8.66309 126.08 8.66309C125.048 8.66317 124.194 9.02087 123.52 9.73535C122.845 10.4498 122.508 11.4023 122.508 12.5928V42.3076H112.98V13.1885C112.98 10.6479 113.536 8.38525 114.647 6.40039C115.799 4.37582 117.367 2.80784 119.352 1.69629C121.336 0.58479 123.579 0.0283771 126.08 0.0283203ZM21.5566 0.0283203C22.8664 0.0284834 23.8783 0.842566 24.5928 2.46973L42.874 42.3076H0L18.5195 2.46973C18.9164 1.63632 19.3528 1.02095 19.8291 0.624023C20.3055 0.22704 20.8818 0.0283203 21.5566 0.0283203ZM60.3105 0.624023C62.8512 0.624023 65.1942 1.2192 67.3379 2.41016C69.4815 3.60107 71.1688 5.22877 72.3994 7.29297C73.6301 9.31759 74.2451 11.5612 74.2451 14.0225C74.2451 16.563 73.63 18.8655 72.3994 20.9297C71.1995 22.9038 69.5641 24.4607 67.4961 25.6045L77.1631 42.3076H65.7891L57.4336 27.4209H55.7256V42.3076H46.1982V0.624023H60.3105ZM103.461 0.624023C104.689 0.624023 105.708 1.00782 106.518 1.77539L106.835 2.09277C107.603 2.89991 107.986 3.89887 107.986 5.08984C107.986 6.36017 107.55 7.43231 106.677 8.30566C105.843 9.13933 104.771 9.55664 103.461 9.55664H93.9932C93.0008 9.55664 92.167 9.89358 91.4922 10.5684C90.8174 11.2035 90.4795 12.0373 90.4795 13.0693V13.1885C90.4795 14.1809 90.8173 15.0146 91.4922 15.6895C92.1671 16.3643 93.0007 16.7021 93.9932 16.7021H100.483C101.793 16.7021 102.866 17.1385 103.699 18.0117C104.573 18.8454 105.01 19.8976 105.01 21.168C105.01 22.4383 104.573 23.5104 103.699 24.3838C102.866 25.2174 101.793 25.6338 100.483 25.6338H94.291C93.1795 25.6338 92.2663 25.9915 91.5518 26.7061C90.8372 27.4206 90.4795 28.3338 90.4795 29.4453V29.5645C90.4795 30.6759 90.8372 31.5892 91.5518 32.3037C92.2663 33.0181 93.1796 33.375 94.291 33.375H103.461C104.689 33.375 105.708 33.7589 106.518 34.5264L106.835 34.8438C107.603 35.651 107.986 36.6506 107.986 37.8418C107.986 39.1119 107.55 40.1834 106.677 41.0566C105.843 41.8903 104.771 42.3076 103.461 42.3076H81.25V0.624023H103.461ZM178.682 0C179.992 0 181.004 0.813826 181.719 2.44141L200 42.2793H157.126L175.645 2.44141C176.041 1.60779 176.479 0.99269 176.955 0.595703C177.431 0.198778 178.007 5.91623e-05 178.682 0ZM21.5566 21.4658C20.4848 21.4658 19.4922 21.744 18.5791 22.2998C17.6661 22.8159 16.9318 23.5303 16.376 24.4434C15.8599 25.3564 15.6016 26.349 15.6016 27.4209C15.6016 28.4926 15.86 29.5044 16.376 30.457C16.8921 31.3701 17.6065 32.0855 18.5195 32.6016C19.4722 33.1175 20.4849 33.375 21.5566 33.375C22.6282 33.3749 23.6204 33.1174 24.5332 32.6016C25.486 32.0855 26.2212 31.3701 26.7373 30.457C27.2531 29.5045 27.5107 28.4924 27.5107 27.4209C27.5107 26.3492 27.2334 25.3563 26.6777 24.4434C26.1617 23.5303 25.4463 22.8159 24.5332 22.2998C23.6203 21.7442 22.6283 21.4659 21.5566 21.4658ZM178.682 21.4375C177.61 21.4376 176.617 21.7148 175.704 22.2705C174.791 22.7865 174.057 23.5012 173.501 24.4141C172.985 25.327 172.728 26.3199 172.728 27.3916C172.728 28.4634 172.985 29.476 173.501 30.4287C174.017 31.3416 174.732 32.0562 175.645 32.5723C176.597 33.0883 177.61 33.3466 178.682 33.3467C179.753 33.3467 180.746 33.0883 181.659 32.5723C182.612 32.0562 183.346 31.3418 183.862 30.4287C184.378 29.4759 184.637 28.4635 184.637 27.3916C184.637 26.3199 184.358 25.327 183.803 24.4141C183.287 23.5012 182.572 22.7865 181.659 22.2705C180.746 21.7148 179.753 21.4375 178.682 21.4375ZM59.5967 9.55664C58.3264 9.55664 57.2542 9.99288 56.3809 10.8662C55.5472 11.6999 55.1299 12.7521 55.1299 14.0225C55.1299 15.2927 55.5472 16.365 56.3809 17.2383C57.2542 18.0718 58.3264 18.4883 59.5967 18.4883H59.6562C60.8469 18.4882 61.8589 18.0517 62.6924 17.1787C63.5657 16.3054 64.0029 15.253 64.0029 14.0225C64.0029 12.7918 63.5657 11.7396 62.6924 10.8662C61.8588 9.9931 60.8469 9.55672 59.6562 9.55664H59.5967Z" fill="black"/>
</svg>
